<svg xmlns="http://www.w3.org/2000/svg" viewBox="0 0 128 128">
  <rect width="128" height="128" fill="#fff"/>
  <path d="M64 108V53" fill="none" stroke="#000" stroke-width="6" stroke-linecap="round"/>
  <path d="M64 62C43 59 29 45 28 25c20 1 35 13 36 37Z" fill="none" stroke="#000" stroke-width="5" stroke-linejoin="round"/>
  <path d="M64 78c22-1 36-12 39-31-20-1-36 9-39 31Z" fill="none" stroke="#000" stroke-width="5" stroke-linejoin="round"/>
  <path d="M64 53c-4-13 0-27 12-37 10 13 8 28-12 37Z" fill="none" stroke="#000" stroke-width="5" stroke-linejoin="round"/>
  <path d="M36 36c9 4 18 11 28 23M92 57c-10 4-18 10-28 19" fill="none" stroke="#000" stroke-width="3" stroke-linecap="round"/>
  <path d="M39 110h50" stroke="#000" stroke-width="5" stroke-linecap="round"/>
</svg>
