<svg xmlns="http://www.w3.org/2000/svg" viewBox="0 0 128 128">
  <rect width="128" height="128" fill="#fff"/>
  <path d="M18 94c24-2 34-18 48-34 13-15 24-24 44-27" fill="none" stroke="#000" stroke-width="6" stroke-linecap="round"/>
  <path d="M33 86c3-15 12-23 26-26M57 66c11 0 20 4 27 12M70 54c0-11 5-19 14-25" fill="none" stroke="#000" stroke-width="4" stroke-linecap="round"/>
  <g fill="#fff" stroke="#000" stroke-width="4">
    <circle cx="28" cy="95" r="7"/>
    <circle cx="43" cy="76" r="8"/>
    <circle cx="63" cy="62" r="7"/>
    <circle cx="82" cy="43" r="8"/>
    <circle cx="102" cy="34" r="7"/>
    <circle cx="84" cy="79" r="7"/>
  </g>
  <path d="M20 108h88" stroke="#000" stroke-width="4" stroke-linecap="round"/>
</svg>
